<svg xmlns="http://www.w3.org/2000/svg" viewBox="0 0 32 32">
  <defs>
    <radialGradient id="glow" cx="50%" cy="50%" r="50%">
      <stop offset="0%" stop-color="#c084fc" stop-opacity="0.12"/>
      <stop offset="100%" stop-color="#c084fc" stop-opacity="0"/>
    </radialGradient>
    <linearGradient id="f1" x1="0%" y1="0%" x2="0%" y2="100%">
      <stop offset="0%" stop-color="#f87171"/>
      <stop offset="100%" stop-color="#fb923c"/>
    </linearGradient>
    <linearGradient id="f2" x1="0%" y1="0%" x2="0%" y2="100%">
      <stop offset="0%" stop-color="#fbbf24"/>
      <stop offset="100%" stop-color="#a3e635"/>
    </linearGradient>
    <linearGradient id="f3" x1="0%" y1="0%" x2="0%" y2="100%">
      <stop offset="0%" stop-color="#fcd34d"/>
      <stop offset="30%" stop-color="#4ade80"/>
      <stop offset="60%" stop-color="#22d3ee"/>
      <stop offset="100%" stop-color="#818cf8"/>
    </linearGradient>
    <linearGradient id="f4" x1="0%" y1="0%" x2="0%" y2="100%">
      <stop offset="0%" stop-color="#34d399"/>
      <stop offset="100%" stop-color="#818cf8"/>
    </linearGradient>
    <linearGradient id="f5" x1="0%" y1="0%" x2="0%" y2="100%">
      <stop offset="0%" stop-color="#c084fc"/>
      <stop offset="100%" stop-color="#818cf8"/>
    </linearGradient>
  </defs>
  <circle cx="16" cy="16" r="15" fill="url(#glow)"/>
  <!-- Feather 1 — red/orange (leftmost, angled left) — centered vertically -->
  <g transform="translate(4, 4) rotate(-20, 4.5, 12)">
    <!-- Vane — asymmetrical feather shape (right vane wider) -->
    <path d="M4.5,0 Q3,3 2.2,6 Q1,9 1.8,12 Q3,14.5 4.5,15.5 Q5,13 5.5,10 Q6.2,7 5.5,4 Q5,2 4.5,0 Z" fill="url(#f1)" opacity="0.85"/>
    <!-- Rachis (central shaft) -->
    <line x1="4.5" y1="0" x2="4.5" y2="22" stroke="#dc2626" stroke-width="0.45" opacity="0.5"/>
    <!-- Barb hints -->
    <path d="M4.5,4 Q2.5,5.5 2,8" fill="none" stroke="#f97316" stroke-width="0.2" opacity="0.35"/>
    <path d="M4.5,5 Q5.5,6.5 5.2,8.5" fill="none" stroke="#f97316" stroke-width="0.2" opacity="0.35"/>
    <path d="M4.5,9 Q3,10 2,12" fill="none" stroke="#f97316" stroke-width="0.2" opacity="0.25"/>
    <path d="M4.5,10 Q5,11 4.8,13" fill="none" stroke="#f97316" stroke-width="0.2" opacity="0.25"/>
  </g>
  <!-- Feather 2 — orange/yellow -->
  <g transform="translate(7.5, 3) rotate(-8, 4.5, 12)">
    <path d="M4.5,0 Q3,3 2.2,6 Q1,9 1.8,12 Q3,14.5 4.5,15.5 Q5,13 5.5,10 Q6.2,7 5.5,4 Q5,2 4.5,0 Z" fill="url(#f2)" opacity="0.9"/>
    <line x1="4.5" y1="0" x2="4.5" y2="23" stroke="#ca8a04" stroke-width="0.45" opacity="0.5"/>
    <path d="M4.5,4 Q2.5,5.5 2,8" fill="none" stroke="#eab308" stroke-width="0.2" opacity="0.35"/>
    <path d="M4.5,5 Q5.5,6.5 5.2,8.5" fill="none" stroke="#eab308" stroke-width="0.2" opacity="0.35"/>
    <path d="M4.5,9 Q3,10 2,12" fill="none" stroke="#eab308" stroke-width="0.2" opacity="0.25"/>
    <path d="M4.5,10 Q5,11 4.8,13" fill="none" stroke="#eab308" stroke-width="0.2" opacity="0.25"/>
  </g>
  <!-- Feather 3 (center, tallest) — rainbow gradient -->
  <g transform="translate(11, 2) rotate(2, 4.5, 13)">
    <path d="M4.5,0 Q3,3 2.2,7 Q0.8,11 1.5,14.5 Q3,17 4.5,18 Q5.5,15 6,12 Q6.7,8.5 6,5 Q5.5,2.5 4.5,0 Z" fill="url(#f3)"/>
    <line x1="4.5" y1="0" x2="4.5" y2="25" stroke="#059669" stroke-width="0.55" opacity="0.5"/>
    <path d="M4.5,3.5 Q2.5,5.5 1.5,9" fill="none" stroke="#22c55e" stroke-width="0.2" opacity="0.35"/>
    <path d="M4.5,5 Q6,7 5.5,9.5" fill="none" stroke="#06b6d4" stroke-width="0.2" opacity="0.35"/>
    <path d="M4.5,10 Q3,11.5 2,14" fill="none" stroke="#22c55e" stroke-width="0.2" opacity="0.25"/>
    <path d="M4.5,11 Q5.5,12 5.2,14.5" fill="none" stroke="#06b6d4" stroke-width="0.2" opacity="0.25"/>
  </g>
  <!-- Feather 4 — green/purple -->
  <g transform="translate(14.5, 3) rotate(10, 4.5, 12)">
    <path d="M4.5,0 Q3,3 2.2,6 Q1,9 1.8,12 Q3,14.5 4.5,15.5 Q5,13 5.5,10 Q6.2,7 5.5,4 Q5,2 4.5,0 Z" fill="url(#f4)" opacity="0.9"/>
    <line x1="4.5" y1="0" x2="4.5" y2="23" stroke="#7c3aed" stroke-width="0.45" opacity="0.5"/>
    <path d="M4.5,4 Q2.5,5.5 2,8" fill="none" stroke="#10b981" stroke-width="0.2" opacity="0.35"/>
    <path d="M4.5,5 Q5.5,6.5 5.2,8.5" fill="none" stroke="#6366f1" stroke-width="0.2" opacity="0.35"/>
    <path d="M4.5,9 Q3,10 2,12" fill="none" stroke="#10b981" stroke-width="0.2" opacity="0.25"/>
    <path d="M4.5,10 Q5,11 4.8,13" fill="none" stroke="#6366f1" stroke-width="0.2" opacity="0.25"/>
  </g>
  <!-- Feather 5 (rightmost, angled right) — purple -->
  <g transform="translate(17.5, 4) rotate(20, 4.5, 12)">
    <path d="M4.5,0 Q3,3 2.2,6 Q1,9 1.8,12 Q3,14.5 4.5,15.5 Q5,13 5.5,10 Q6.2,7 5.5,4 Q5,2 4.5,0 Z" fill="url(#f5)" opacity="0.85"/>
    <line x1="4.5" y1="0" x2="4.5" y2="22" stroke="#7c3aed" stroke-width="0.45" opacity="0.5"/>
    <path d="M4.5,4 Q2.5,5.5 2,8" fill="none" stroke="#a855f7" stroke-width="0.2" opacity="0.35"/>
    <path d="M4.5,5 Q5.5,6.5 5.2,8.5" fill="none" stroke="#8b5cf6" stroke-width="0.2" opacity="0.35"/>
    <path d="M4.5,9 Q3,10 2,12" fill="none" stroke="#a855f7" stroke-width="0.2" opacity="0.25"/>
    <path d="M4.5,10 Q5,11 4.8,13" fill="none" stroke="#8b5cf6" stroke-width="0.2" opacity="0.25"/>
  </g>
</svg>
